<?xml version="1.0" encoding="utf-8"?>
<!-- Generator: Adobe Illustrator 23.0.3, SVG Export Plug-In . SVG Version: 6.00 Build 0)  -->
<svg version="1.1" id="Layer_1" focusable="false" xmlns="http://www.w3.org/2000/svg" xmlns:xlink="http://www.w3.org/1999/xlink"
	 x="0px" y="0px" viewBox="0 0 512 512" style="enable-background:new 0 0 512 512;" xml:space="preserve" fill="white" >
<g>
	<path fill="white" d="M111.7,256.1c-0.2,24.7-20.5,45.2-44.6,45.1c-23.9-0.1-45.2-21.5-45-45.2c0.2-24.5,20.7-44.9,45.1-44.9
		C91.5,211.1,112,231.7,111.7,256.1z"/>
	<path fill="white"  d="M111.7,98.6c-0.5,24.9-20.1,43.8-45.4,43.6c-25.1-0.2-44.6-20.1-44.1-44.9c0.4-24.3,21-44,45.6-43.6
		C92.5,53.9,112.1,74,111.7,98.6z"/>
	<path fill="white"  d="M111.6,414c-0.1,25.2-19.4,44.4-44.6,44.4c-24.8,0-44.8-19.9-44.9-44.6c-0.1-25,19.5-44.3,44.9-44.2
		C92.3,369.7,111.7,389,111.6,414z"/>
	<rect x="157.8" y="78.3" width="332.1" height="39.2"/>
	<rect x="157.8" y="236.5" width="332.1" height="39.2"/>
	<rect x="157.8" y="394.4" width="332.1" height="39.2"/>
</g>
</svg>
