<?xml version="1.0" encoding="utf-8"?>
<!-- Generator: Adobe Illustrator 23.0.3, SVG Export Plug-In . SVG Version: 6.00 Build 0)  -->
<svg version="1.1" id="Layer_1" xmlns="http://www.w3.org/2000/svg" xmlns:xlink="http://www.w3.org/1999/xlink" x="0px" y="0px"
	 viewBox="0 0 821.5 667.8" style="enable-background:new 0 0 821.5 667.8;" xml:space="preserve">
<path d="M317.4,443.4c5.5,14.5,10.5,28.1,15.7,41.5c0.4,1,2.1,1.7,3.4,2.1c1.2,0.4,2.6,0.1,4,0.1c106.8,0,213.7,0,320.5,0
	c48.2,0,85.4,32.6,91.6,80.4c6,46.7-27.7,91.7-74.6,99.3c-46.3,7.5-91.4-23.6-101.1-69.7c-3.1-15-2.7-29.8,1.4-44.5
	c0.3-0.9,0.5-1.9,0.8-3.3c-60.5,0-120.7,0-181.3,0c8.1,28.7,4.8,55.8-12.3,80.5c-12.3,17.8-29.2,29.6-50.1,35.1
	c-42.2,11.2-86.3-10.4-103.9-50.6c-17.5-39.9-5.5-91.4,40.7-117.3c-0.6-1.7-1.2-3.5-1.9-5.3C216.8,349.8,163.3,208,109.9,66.2
	c-1.3-3.4-2.9-4.4-6.5-4.4c-24.3,0.2-48.7,0.2-73,0C15.9,61.7,4,51.9,0.8,38.1C-2.4,23.8,4,9.4,17,3.3c4.4-2,9.6-3.1,14.4-3.2
	C63.5-0.1,95.7,0,127.9,0c14.3,0,24.9,7.2,30,20.5c6.4,16.8,12.7,33.6,19,50.4c4.1,10.9,8.4,21.7,12.2,32.7c1.6,4.8,3.8,6.5,9.1,6.5
	c60.8-0.2,121.7-0.2,182.5-0.2c136,0,272,0,408,0c23.8,0,38,19.2,31,42c-27.4,89-54.7,178.1-82.1,267.1
	c-5.1,16.6-15.5,24.2-32.8,24.2c-126.5,0-253,0-379.5,0C323,443.4,320.7,443.4,317.4,443.4z M384.8,172.2c-56.9,0-113,0-169.4,0
	c0.2,1,0.3,1.7,0.6,2.3c11.1,29.4,22.2,58.8,33.1,88.2c1.3,3.6,3.6,3.7,6.5,3.7c43.6,0,87.3,0,130.9,0c1.7,0,3.5-0.2,5.5-0.3
	C389.6,234.4,387.2,203.4,384.8,172.2z M749.5,172.1c-53,0-105.2,0-157.8,0c-2.4,31.4-4.8,62.5-7.3,93.9c2,0.2,3.3,0.3,4.6,0.3
	c42.5,0,85,0,127.4,0.1c3.3,0,4.6-1.2,5.5-4.2c4.2-14.2,8.6-28.3,13-42.4C739.7,204,744.6,188.3,749.5,172.1z M561.1,172.2
	c-48.9,0-97,0-145.6,0c2.4,31.5,4.8,62.6,7.2,93.9c43.9,0,87.3,0,131.1,0C556.3,234.7,558.7,203.6,561.1,172.2z M425.3,297.7
	c2.2,28.2,4.3,55.9,6.4,83.6c38.2,0,75.6,0,113.2,0c2.2-28,4.3-55.7,6.5-83.6C509.1,297.7,467.5,297.7,425.3,297.7z M400.9,381.5
	c-0.1-2.3-0.2-4.2-0.4-6c-1.9-24.2-3.9-48.5-5.5-72.7c-0.3-4.4-1.6-5.5-5.9-5.5c-40.3,0.2-80.7,0.1-121,0.1c-1.7,0-3.4,0.2-5.7,0.4
	c10.7,28.4,21.2,56.1,31.6,83.7C329.7,381.5,364.9,381.5,400.9,381.5z M711,297.8c-43.4,0-86.1,0-128.9,0
	c-2.2,28.1-4.3,55.7-6.4,83.1c1,0.4,1.3,0.6,1.6,0.7c35,0,70,0.1,104.9,0c1.3,0,3.4-1.8,3.9-3.2c2.3-6.6,4.3-13.3,6.3-20
	C698.5,338.3,704.7,318.3,711,297.8z M692,577.6c0.1-15.7-12.5-28.6-27.9-28.7c-15.4-0.1-28.2,12.8-28.3,28.4
	c-0.1,15.7,12.5,28.6,27.9,28.6C679.4,605.9,692,593.4,692,577.6z M284.8,577.2c-0.1,15.8,12.4,28.6,27.8,28.7
	c15.8,0.1,28.4-12.7,28.4-28.7c-0.1-15.3-12.8-28.2-27.9-28.3C297.7,548.8,284.9,561.6,284.8,577.2z"/>
</svg>
