<?xml version="1.0" encoding="utf-8"?>
<!-- Generator: Adobe Illustrator 23.0.3, SVG Export Plug-In . SVG Version: 6.00 Build 0)  -->
<svg version="1.1" id="Layer_1" focusable="false" xmlns="http://www.w3.org/2000/svg" xmlns:xlink="http://www.w3.org/1999/xlink"
	 x="0px" y="0px" viewBox="0 0 512 512" style="enable-background:new 0 0 512 512;" xml:space="preserve">
<style type="text/css">
	.st0{fill:none;stroke:#FFFFFF;stroke-width:21;stroke-miterlimit:10;}
</style>
<path class="st0" d="M256.5,18C388.3,18,495,124.7,495,256.5S388.3,495,256.5,495S18,388.3,18,256.5S124.7,18,256.5,18z M366,240.2
	L235.7,109.8c-9-9-23.7-9-32.6,0l-16.3,16.3c-9,9-9,23.7,0,32.6l97.7,97.7l-97.7,97.7c-9,9-9,23.7,0,32.6l16.3,16.3
	c9,9,23.7,9,32.6,0L366,272.8C375.1,263.8,375.1,249.2,366,240.2z"/>
</svg>
