<svg id="Layer_1" data-name="Layer 1" xmlns="http://www.w3.org/2000/svg" viewBox="0 0 549 548.9"><title>clearfilter</title><path d="M117.08,0c18.74,25.5,37.68,50.86,56.18,76.53q118.16,164,236,328.24a66.66,66.66,0,0,1,10.37,22c.88,3.49-2.76,9.88-6.19,12.05-2.25,1.43-8.24-1.68-11.72-4-2.88-1.92-4.57-5.66-6.71-8.64Q254.77,231.3,114.62,36.39c-4-5.54-7.58-11.36-11.35-17V0Z"/><path d="M122.68,71.47c5.19,6.57,8.13,10,10.74,13.65Q221,207.48,308.3,330.05a42.12,42.12,0,0,1,7.42,22.46c.62,56.17.36,112.34.29,168.51,0,5,.77,10.8-1.36,14.91-2.71,5.22-7.33,10.85-12.46,12.84-2.73,1.05-9.66-4.32-12.36-8.35-18.89-28.32-37.62-56.77-55.32-85.83-4.26-7-6.1-16.42-6.21-24.76-.61-42.81.12-85.64-.62-128.45a51.46,51.46,0,0,0-7.39-25.44c-33.4-52.9-67.88-105.13-101.2-158.08-4.74-7.54-6.81-17.87-6.81-26.91C112.27,85.1,118.27,79.26,122.68,71.47Z"/><path d="M186.68,75.07c8-.45,11.95-.86,15.9-.87q110.31,0,220.64,0c18.6,0,28.23,16.32,18.91,32.69-4.05,7.14-9.65,13.4-14.65,20q-47.13,62-94.31,124c-2.7,3.55-5.67,6.9-9.81,11.91Z"/></svg>