<svg id="Layer_1" data-name="Layer 1" xmlns="http://www.w3.org/2000/svg" viewBox="0 0 549 548.9"><defs><style>.cls-1{fill:#fff;}</style></defs><title>search</title><path class="cls-1" d="M377.54,393.24c-138.4,101.84-270.67,44-331-37.7-65-88.06-54.93-213,25.41-291,82.68-80.25,208.43-84.76,298.1-10.07,83.7,69.72,116.37,199.81,29.67,314C448.93,418.08,498.05,467,546,517.11c4.2,4.39,3.87,18.83-.21,23.81s-19.74,8.54-23.12,5.27C475.21,500.26,428.94,453.11,382.61,406,380.18,403.57,379.78,399.12,377.54,393.24ZM227.16,34.41c-103.86-.15-190.83,87-190.45,190.77.37,102.87,85.54,188.54,188.6,189.73,103.6,1.19,191.21-85.25,191.89-189.33C417.88,121.86,331.1,34.57,227.16,34.41Z"/></svg>