<svg id="Layer_1" data-name="Layer 1" xmlns="http://www.w3.org/2000/svg" viewBox="0 0 549 548.9"><defs><style>.cls-1{fill:#fff;}</style></defs><title>share</title><path class="cls-1" d="M305.5,330.49c-43,5.05-81.88,7.57-119.93,14.6-50.33,9.3-71.79,44.21-62.33,95.2,2.77,15,7.55,29.82,8.24,44.87,1.17,25.67-22.17,40.49-42.79,27.17-100.16-64.69-120.1-220.23-36-296.47,37.86-34.35,85.46-47.58,134.83-54.07,37.79-5,75.84-7.9,118-12.18,0-23.56.26-48.61-.08-73.65-.27-19.22,4.23-35.59,24-43.21,19.5-7.5,34.56.92,47.68,14.66,51.54,54,103.24,107.81,154.45,162.1,23.1,24.49,23.22,42.05.32,66.34C480.73,330.17,429,384,377.49,438c-13.1,13.73-28,22.44-47.57,15.19-21.18-7.87-24.89-25.45-24.52-45.45C305.83,384.16,305.5,360.59,305.5,330.49Zm30.71-146.14c-34.89,0-64.6-1.6-94,.45S183.1,190.6,154.32,197c-86.63,19.28-129.76,77.63-124,164.93,3.27,49.95,34.25,102.24,68.66,117-2-22.17-5.78-44.79-5.75-67.41.06-36.75,15.92-66.12,50.19-81.69,61.05-27.75,126.09-24,194.49-24.91V429.5c8.47-5.84,13.05-8,16.32-11.39C405.84,364.38,457.05,310.23,509,256.84c11.45-11.75,8.29-19.3-1.54-29.45C456.84,175.06,406.72,122.21,356.21,69.74c-4.14-4.3-9.79-7.15-20-14.41Z"/></svg>