<?xml version="1.0" encoding="utf-8"?>
<!-- Generator: Adobe Illustrator 23.0.3, SVG Export Plug-In . SVG Version: 6.00 Build 0)  -->
<svg version="1.1" id="Layer_1" focusable="false" xmlns="http://www.w3.org/2000/svg" xmlns:xlink="http://www.w3.org/1999/xlink"
	 x="0px" y="0px" viewBox="0 0 549 548.9" style="enable-background:new 0 0 549 548.9;" xml:space="preserve">
<style type="text/css">
	.st0{fill:#FFFFFF;}
</style>
<path class="st0" d="M506.5,351.9H357v-123h69.2c15.6,0,29.6-9.3,35.5-23.7c6-14.4,2.7-30.9-8.4-41.9L301.2,11
	c-7.1-7.1-16.6-11-26.7-11s-19.6,3.9-26.7,11L95.6,163.2c-11,11.1-14.3,27.5-8.4,41.9c6,14.4,19.9,23.7,35.5,23.7H192v123H42.5
	C19.1,351.9,0,371,0,394.4v112c0,23.4,19.1,42.5,42.5,42.5h464c23.4,0,42.5-19.1,42.5-42.5v-112C549,371,529.9,351.9,506.5,351.9z
	 M122.8,191.9c-0.5,0-1,0-1.3-0.9c-0.4-0.9,0-1.3,0.3-1.6L273.9,37.2c0,0,0.2-0.2,0.6-0.2s0.5,0.2,0.6,0.2l152.2,152.2
	c0.3,0.3,0.7,0.7,0.3,1.6c-0.4,0.9-0.9,0.9-1.3,0.9H320v186.5c0,3.1-2.4,5.5-5.5,5.5h-80c-3.1,0-5.5-2.4-5.5-5.5V191.9H122.8z
	 M512,506.4c0,3.1-2.4,5.5-5.5,5.5h-464c-3.1,0-5.5-2.4-5.5-5.5v-112c0-3.1,2.4-5.5,5.5-5.5h118.2c5.1,36.1,36.2,64,73.8,64h80
	c37.5,0,68.7-27.9,73.8-64h118.2c3.1,0,5.5,2.4,5.5,5.5V506.4z"/>
<g id="XMLID_1_">
	<g>
		<circle class="st0" cx="450.5" cy="469.4" r="1.5"/>
		<circle class="st0" cx="386.5" cy="469.4" r="1.5"/>
	</g>
	<g>
		<path class="st0" d="M450.5,430.9c-13.3,0-25.1,6.8-32,17.1c-6.9-10.3-18.7-17.1-32-17.1c-21.2,0-38.5,17.3-38.5,38.5
			c0,21.2,17.3,38.5,38.5,38.5c13.3,0,25.1-6.8,32-17.1c6.9,10.3,18.7,17.1,32,17.1c21.2,0,38.5-17.3,38.5-38.5
			C489,448.2,471.7,430.9,450.5,430.9z M386.5,470.9c-0.8,0-1.5-0.7-1.5-1.5c0-0.8,0.7-1.5,1.5-1.5s1.5,0.7,1.5,1.5
			C388,470.2,387.3,470.9,386.5,470.9z M450.5,470.9c-0.8,0-1.5-0.7-1.5-1.5c0-0.8,0.7-1.5,1.5-1.5s1.5,0.7,1.5,1.5
			C452,470.2,451.3,470.9,450.5,470.9z"/>
	</g>
</g>
</svg>
